<svg width="33" height="33" viewBox="0 0 33 33" fill="none" xmlns="http://www.w3.org/2000/svg">
<path d="M29.8331 14.0973V22.0973M29.0597 15.3267C29.2984 15.2214 29.501 15.0483 29.6423 14.8291C29.7836 14.6098 29.8575 14.3538 29.8548 14.093C29.8521 13.8321 29.773 13.5777 29.6271 13.3614C29.4813 13.1451 29.2752 12.9763 29.0344 12.876L17.6064 7.67065C17.259 7.51218 16.8816 7.43018 16.4997 7.43018C16.1179 7.43018 15.7405 7.51218 15.3931 7.67065L3.9664 12.8707C3.72902 12.9746 3.52709 13.1455 3.38529 13.3624C3.24349 13.5793 3.16797 13.8328 3.16797 14.092C3.16797 14.3511 3.24349 14.6047 3.38529 14.8216C3.52709 15.0385 3.72902 15.2094 3.9664 15.3133L15.3931 20.524C15.7405 20.6825 16.1179 20.7645 16.4997 20.7645C16.8816 20.7645 17.259 20.6825 17.6064 20.524L29.0597 15.3267Z" stroke="black" stroke-width="2" stroke-linecap="round" stroke-linejoin="round"/>
<path d="M8.5 17.4307V22.0973C8.5 23.1582 9.34286 24.1756 10.8431 24.9258C12.3434 25.6759 14.3783 26.0973 16.5 26.0973C18.6217 26.0973 20.6566 25.6759 22.1569 24.9258C23.6571 24.1756 24.5 23.1582 24.5 22.0973V17.4307" stroke="black" stroke-width="2" stroke-linecap="round" stroke-linejoin="round"/>
</svg>