<svg width="16" height="21" viewBox="0 0 16 21" fill="none" xmlns="http://www.w3.org/2000/svg">
<path d="M12.063 4.70016V5.09216H15.311V7.38816H11.895C11.6897 8.63883 11.2977 9.63749 10.719 10.3842C10.159 11.1122 9.35635 11.6442 8.31102 11.9802C7.26568 12.2975 5.91235 12.4562 4.25102 12.4562V14.2202C4.25102 15.2468 4.46568 16.0588 4.89502 16.6562C5.34302 17.2535 6.08968 17.5522 7.13502 17.5522C9.03902 17.5522 9.99102 16.4788 9.99102 14.3322H12.931C12.9123 16.2175 12.399 17.6455 11.391 18.6162C10.4017 19.5682 8.96435 20.0442 7.07902 20.0442C5.19368 20.0442 3.74702 19.5215 2.73902 18.4762C1.74968 17.4308 1.25502 15.9655 1.25502 14.0802V10.2442C3.32702 10.2442 4.84835 10.1882 5.81902 10.0762C6.78968 9.94549 7.50835 9.68416 7.97502 9.29216C8.46035 8.90016 8.77768 8.26549 8.92702 7.38816H0.0790157V5.09216H9.06702V4.70016V2.60016H0.0790157V0.276159H15.311V2.60016H12.063V4.70016Z" fill="black"/>
</svg>