<svg width="48" height="21" viewBox="0 0 48 21" fill="none" xmlns="http://www.w3.org/2000/svg">
<g id="Frame" clip-path="url(#clip0_1_206)">
<path id="Vector" d="M13.6098 1.82958C13.652 3.29919 13.652 4.7688 13.6098 6.23841C13.6098 6.43284 13.6689 6.54149 13.9392 6.63298C14.2349 6.73591 14.691 6.74163 15.012 6.70732C15.4344 6.66729 15.8821 6.58723 16.2454 6.4214C16.465 6.32419 16.862 6.15264 16.862 5.9525C16.9127 4.37996 16.9127 2.8017 16.862 1.22916C16.862 1.05761 16.3974 0.948961 16.2285 0.926087C15.8483 0.868904 15.3753 0.903214 15.012 0.971834C14.4123 1.09192 13.5844 1.32637 13.6013 1.81815L13.6098 1.82958Z" fill="#FFB154"/>
<path id="Vector_2" d="M23.1885 1.38439L23.0956 5.70745C23.0956 5.90187 23.1547 6.01052 23.425 6.10201C23.7207 6.20494 24.1769 6.21066 24.4979 6.17635C24.9202 6.13632 25.3679 6.05627 25.7312 5.89043C25.9424 5.79322 26.3478 5.62167 26.3478 5.42153L26.4408 1.09848C26.4408 0.904052 26.3816 0.795404 26.1113 0.703911C25.8157 0.600981 25.3595 0.595262 25.0385 0.629572C24.6161 0.669601 24.1684 0.749657 23.8052 0.915489C23.594 1.0127 23.1885 1.18425 23.1885 1.38439V1.38439Z" fill="#FFB154"/>
<path id="Vector_3" d="M0.195413 14.7365C4.65566 18.1961 11.1179 20.1232 17.7999 20.5578C24.4818 20.9924 31.8902 19.6543 37.8541 17.2069C41.2753 15.8002 44.3079 14.0218 46.952 11.9917C47.5264 11.5457 46.462 11.2941 45.9805 11.2827C45.1104 11.2541 44.1981 11.5 43.6237 11.9403C39.6449 15.0053 34.4329 17.4756 28.6041 18.6078C22.7754 19.7401 16.896 19.437 11.5234 17.8187C8.42321 16.8866 5.6778 15.5371 3.43923 13.8102C2.64517 13.1983 -0.708462 14.0446 0.186966 14.7365H0.195413V14.7365Z" fill="#FFB154"/>
</g>
<defs>
<clipPath id="clip0_1_206">
<rect width="47.0775" height="20.0256" fill="white" transform="translate(0.0429688 0.617676)"/>
</clipPath>
</defs>
</svg>
