<svg width="101" height="88" viewBox="0 0 101 88" fill="none" xmlns="http://www.w3.org/2000/svg">
<g id="Group 67">
<path id="Vector" fill-rule="evenodd" clip-rule="evenodd" d="M68.6968 28.1034C56.588 22.6941 44.601 9.12703 34.656 19.163C23.4091 30.5129 25.106 50.6705 32.973 63.6976C40.1163 75.5265 55.1198 79.233 68.6968 75.5323C82.1649 71.8612 93.768 61.1792 94.2253 46.9565C94.6123 34.9188 79.1365 32.767 68.6968 28.1034Z" fill="#C8EFEA"/>
<path id="Vector_2" fill-rule="evenodd" clip-rule="evenodd" d="M59.8791 18.0608C46.6502 12.1512 33.5544 -2.67089 22.6895 8.29348C10.4021 20.6932 12.256 42.7154 20.8507 56.9477C28.6548 69.8707 45.0462 73.9201 59.8791 69.8771C74.5931 65.8664 87.2695 54.1963 87.7691 38.658C88.1919 25.5067 71.2845 23.1559 59.8791 18.0608Z" stroke="#30E1CB" stroke-width="2"/>
</g>
</svg>
