<svg width="131" height="108" viewBox="0 0 131 108" fill="none" xmlns="http://www.w3.org/2000/svg">
<g id="Group 68">
<path id="Vector" fill-rule="evenodd" clip-rule="evenodd" d="M89.9091 30.4261C74.2506 23.4311 58.7497 5.88688 45.8893 18.8649C31.3454 33.5419 33.5398 59.6087 43.7129 76.4547C52.9503 91.7512 72.352 96.5443 89.9091 91.7586C107.325 87.0114 122.33 73.198 122.921 54.806C123.422 39.2394 103.409 36.4569 89.9091 30.4261Z" fill="#F1F4E7"/>
<path id="Vector_2" fill-rule="evenodd" clip-rule="evenodd" d="M76.8339 23.2552C59.7271 15.6131 42.7923 -3.55398 28.7423 10.6246C12.8529 26.6593 15.2503 55.1372 26.3645 73.5416C36.4564 90.253 57.6528 95.4895 76.834 90.2612C95.8613 85.0749 112.254 69.9837 112.9 49.8903C113.447 32.8838 91.5828 29.8438 76.8339 23.2552Z" stroke="#FEA439" stroke-width="2"/>
</g>
</svg>
