<svg width="94" height="96" viewBox="0 0 94 96" fill="none" xmlns="http://www.w3.org/2000/svg">
<g id="Group 63">
<path id="Vector" fill-rule="evenodd" clip-rule="evenodd" d="M32.0144 25.9752C22.5509 35.31 5.20859 41.6949 11.4947 54.3972C18.6037 68.7624 38.7665 74.201 54.1517 71.4446C68.1217 68.9418 76.9386 56.3334 78.0671 42.4702C79.1866 28.7182 72.8499 14.2554 59.199 8.88538C47.6451 4.34033 40.1735 17.927 32.0144 25.9752Z" stroke="#FAC589" stroke-width="2"/>
<path id="Vector_2" fill-rule="evenodd" clip-rule="evenodd" d="M25.5042 39.2283C16.842 47.7727 0.968083 53.617 6.72191 65.2438C13.229 78.3926 31.6846 83.3708 45.7672 80.8478C58.5543 78.5569 66.6247 67.016 67.6576 54.3266C68.6823 41.739 62.8822 28.5008 50.3871 23.5855C39.8115 19.4253 32.9725 31.8615 25.5042 39.2283Z" fill="#FEEDDA"/>
</g>
</svg>
