<svg width="131" height="47" viewBox="0 0 131 47" fill="none" xmlns="http://www.w3.org/2000/svg">
<g id="Frame" clip-path="url(#clip0_1_204)">
<path id="Vector" d="M3.32902 42.5908C9.85 34.7745 17.8429 27.9496 26.8542 22.9012C30.4998 20.8603 34.7615 19.1169 39.0489 19.1913C43.3363 19.2656 47.0247 21.4635 48.625 25.2312C50.2253 28.9989 49.669 33.0889 48.0516 36.6253C46.4342 40.1616 42.9769 44.0368 38.8007 44.8052C34.6246 45.5736 30.534 43.0701 28.0694 40.0873C25.0571 36.427 24.4666 31.5438 25.5705 27.0903C27.9838 17.3322 37.2603 11.5484 46.2802 7.94594C56.1986 3.98817 67.0326 2.30261 77.7383 2.98014C82.214 3.26107 87.5112 4.06254 89.5565 8.49953C91.6018 12.9365 89.9758 17.4479 87.2288 21.009C85.7312 22.9507 83.8999 24.6776 81.9744 26.231C80.3484 27.5447 78.3117 29.0072 76.0952 29.0485C74.2382 29.0816 72.2528 27.9826 71.2858 26.4706C69.9936 24.4545 70.9606 22.2236 72.4069 20.5711C75.248 17.3322 79.1931 14.7295 82.9928 12.6556C86.7924 10.5817 90.8573 9.02833 95.0677 7.98725C103.574 5.8803 112.628 5.92987 121.092 8.20207C123.24 8.78045 125.328 9.50756 127.373 10.3586C128.152 10.6808 129.204 10.4578 129.898 10.0364C130.351 9.75544 131.002 9.03659 130.214 8.69783C111.421 0.625312 87.8364 4.35173 72.3726 17.3157C70.3958 18.9764 68.1879 20.8438 67.315 23.306C66.562 25.4378 67.3321 27.6687 69.095 29.0898C73.4766 32.6262 79.5354 30.6845 83.626 27.743C87.7166 24.8015 92.2436 20.3315 93.6214 15.2335C94.8965 10.5239 93.3219 5.40933 88.7264 3.03798C86.3474 1.80686 83.6003 1.38547 80.9475 1.14585C77.9095 0.864926 74.8458 0.798826 71.7907 0.897977C65.5521 1.1128 59.3478 2.02995 53.3403 3.6742C47.3328 5.31844 42.0441 7.39234 36.918 10.276C32.1086 12.9861 27.5559 16.5555 24.6805 21.2321C21.9677 25.6443 20.6413 31.0646 22.0105 36.1047C23.2599 40.707 26.9911 44.5904 31.655 46.1189C41.8387 49.457 51.9625 40.5913 52.9466 31.0067C53.4002 26.5863 51.9454 22.1162 48.0602 19.5053C43.9354 16.7373 38.5526 16.9521 33.8972 18.1419C28.5315 19.5135 23.7306 22.2897 19.2121 25.3304C14.3599 28.5941 9.82432 32.2957 5.71662 36.4022C3.75691 38.3604 1.89988 40.4013 0.136996 42.5247C-0.385025 43.1444 0.581997 43.4749 1.06123 43.4914C1.86565 43.5245 2.807 43.2023 3.32046 42.5908H3.32902Z" fill="#FEA439"/>
</g>
<defs>
<clipPath id="clip0_1_204">
<rect width="130.574" height="45.9811" fill="white" transform="translate(0 0.848633)"/>
</clipPath>
</defs>
</svg>
