<svg width="33" height="33" viewBox="0 0 33 33" fill="none" xmlns="http://www.w3.org/2000/svg">
<path d="M27.1667 23.4307C27.8739 23.4307 28.5522 23.1497 29.0523 22.6496C29.5524 22.1495 29.8333 21.4712 29.8333 20.764V6.09733C29.8333 5.39009 29.5524 4.71181 29.0523 4.21171C28.5522 3.71162 27.8739 3.43066 27.1667 3.43066H13.1133C13.58 4.244 13.8333 5.164 13.8333 6.09733H27.1667V20.764H15.1667V23.4307M20.5 10.0973V12.764H12.5V30.0973H9.83333V22.0973H7.16667V30.0973H4.5V19.4307H2.5V12.764C2.5 12.0568 2.78095 11.3785 3.28105 10.8784C3.78115 10.3783 4.45942 10.0973 5.16667 10.0973H20.5ZM11.1667 6.09733C11.1667 6.80457 10.8857 7.48285 10.3856 7.98295C9.88552 8.48305 9.20724 8.764 8.5 8.764C7.79276 8.764 7.11448 8.48305 6.61438 7.98295C6.11428 7.48285 5.83333 6.80457 5.83333 6.09733C5.83333 5.39009 6.11428 4.71181 6.61438 4.21171C7.11448 3.71162 7.79276 3.43066 8.5 3.43066C9.20724 3.43066 9.88552 3.71162 10.3856 4.21171C10.8857 4.71181 11.1667 5.39009 11.1667 6.09733Z" fill="black"/>
</svg>